<svg width="24" height="24" viewBox="0 0 24 24" fill="none" xmlns="http://www.w3.org/2000/svg">
    <path d="M7.75736 6.34315C7.36683 5.95262 6.73367 5.95262 6.34314 6.34315C5.95262 6.73367 5.95262 7.36684 6.34314 7.75736L10.5858 12L6.34313 16.2426C5.9526 16.6332 5.9526 17.2663 6.34313 17.6569C6.73365 18.0474 7.36681 18.0474 7.75734 17.6569L12 13.4142L16.2426 17.6569C16.6332 18.0474 17.2663 18.0474 17.6569 17.6569C18.0474 17.2663 18.0474 16.6332 17.6569 16.2426L13.4142 12L17.6568 7.75736C18.0474 7.36684 18.0474 6.73367 17.6568 6.34315C17.2663 5.95262 16.6331 5.95262 16.2426 6.34315L12 10.5858L7.75736 6.34315Z" fill="#C5C5C5"/>
</svg>
