<svg width="32" height="32" viewBox="0 0 32 32" fill="none" xmlns="http://www.w3.org/2000/svg">
    <path d="M4.74077 5.60001C3.86802 5.60001 3.16052 6.31635 3.16052 7.20001V24.8C3.16052 25.6837 3.86802 26.4 4.74077 26.4H24.0988C24.9715 26.4 25.679 25.6837 25.679 24.8V10C25.679 9.11635 24.9715 8.40001 24.0988 8.40001H12.642V7.20001C12.642 6.31635 11.9345 5.60001 11.0618 5.60001H4.74077Z" fill="url(#paint0_linear_2_1278)"/>
    <path d="M6.02518 12.8179C6.1989 12.1027 6.83233 11.6 7.5597 11.6H26.8811C27.8883 11.6 28.6385 12.5413 28.4257 13.5381L25.9485 25.1381C25.7913 25.8745 25.148 26.4 24.404 26.4H4.74195C3.71638 26.4 2.9625 25.4262 3.20744 24.4179L6.02518 12.8179Z" fill="url(#paint1_linear_2_1278)"/>
    <defs>
        <linearGradient id="paint0_linear_2_1278" x1="15.8025" y1="2.40001" x2="9.73647" y2="26.3645" gradientUnits="userSpaceOnUse">
            <stop stop-color="#EA670C"/>
            <stop offset="0.9999" stop-color="#BA3B13"/>
            <stop offset="1" stop-color="#EA670C" stop-opacity="0"/>
        </linearGradient>
        <linearGradient id="paint1_linear_2_1278" x1="25.0864" y1="9.80001" x2="20.4373" y2="26.3703" gradientUnits="userSpaceOnUse">
            <stop stop-color="#EA670C"/>
            <stop offset="1" stop-color="#EAAC0C"/>
        </linearGradient>
    </defs>
</svg>
