<svg xmlns="http://www.w3.org/2000/svg" width="32" height="32" fill="none" viewBox="0 0 32 32"><path fill="url(#a)" d="M6.4 6A1.6 1.6 0 0 1 8 4.4h10.537a1.6 1.6 0 0 1 1.132.469l5.462 5.462c.3.3.469.707.469 1.132V26a1.6 1.6 0 0 1-1.6 1.6H8A1.6 1.6 0 0 1 6.4 26V6Z"/><path fill="url(#b)" d="m19.2 4.4 6.4 6.4h-2.4a4 4 0 0 1-4-4V4.4Z"/><path fill="#9A9A9A" d="M8.8 16.6a.6.6 0 0 1 .6-.6H15a.6.6 0 1 1 0 1.2H9.4a.6.6 0 0 1-.6-.6ZM8.8 19a.6.6 0 0 1 .6-.6h10.4a.6.6 0 1 1 0 1.2H9.4a.6.6 0 0 1-.6-.6ZM8.8 21.4a.6.6 0 0 1 .6-.6h8.4a.6.6 0 1 1 0 1.2H9.4a.6.6 0 0 1-.6-.6ZM8.8 23.8a.6.6 0 0 1 .6-.6h12.4a.6.6 0 1 1 0 1.2H9.4a.6.6 0 0 1-.6-.6Z"/><defs><linearGradient id="a" x1="15.4" x2="12.306" y1="4.4" y2="28.204" gradientUnits="userSpaceOnUse"><stop stop-color="#E7E7E7"/><stop offset=".969" stop-color="#AEAEAE"/></linearGradient><linearGradient id="b" x1="22.2" x2="21.49" y1="4.4" y2="11.001" gradientUnits="userSpaceOnUse"><stop stop-color="#E7E7E7"/><stop offset=".969" stop-color="#AEAEAE"/></linearGradient></defs></svg>
