<svg xmlns="http://www.w3.org/2000/svg" width="32" height="32" fill="none" viewBox="0 0 32 32"><path fill="url(#a)" d="M4.8 5.6a1.6 1.6 0 0 0-1.6 1.6v17.6a1.6 1.6 0 0 0 1.6 1.6h19.6a1.6 1.6 0 0 0 1.6-1.6V10a1.6 1.6 0 0 0-1.6-1.6H12.8V7.2a1.6 1.6 0 0 0-1.6-1.6H4.8Z"/><path fill="#fff" d="M9.2 11.6a1.6 1.6 0 0 1 1.6-1.6h12a1.6 1.6 0 0 1 1.6 1.6v13.2a1.6 1.6 0 0 1-1.6 1.6h-12a1.6 1.6 0 0 1-1.6-1.6V11.6Z"/><path fill="url(#b)" d="M6.1 12.818A1.6 1.6 0 0 1 7.654 11.6h19.563a1.6 1.6 0 0 1 1.564 1.938l-2.508 11.6a1.6 1.6 0 0 1-1.564 1.262H4.801a1.6 1.6 0 0 1-1.553-1.982l2.852-11.6Z"/><defs><linearGradient id="a" x1="16" x2="10" y1="2.4" y2="26.4" gradientUnits="userSpaceOnUse"><stop stop-color="#EA670C"/><stop offset="1" stop-color="#BA3B13"/><stop offset="1" stop-color="#EA670C" stop-opacity="0"/></linearGradient><linearGradient id="b" x1="25.4" x2="20.8" y1="9.8" y2="26.4" gradientUnits="userSpaceOnUse"><stop stop-color="#EA670C"/><stop offset="1" stop-color="#EAAC0C"/></linearGradient></defs></svg>
