<svg width="203" height="54" viewBox="0 0 203 54" fill="none" xmlns="http://www.w3.org/2000/svg">
    <mask id="mask0_343_808" style="mask-type:luminance" maskUnits="userSpaceOnUse" x="0" y="0" width="203" height="54">
        <path d="M202.15 0.600006H0.850098V53.4H202.15V0.600006Z" fill="white"/>
    </mask>
    <g mask="url(#mask0_343_808)">
        <path d="M201.958 24.7679C201.737 26.2274 201.737 27.7298 201.427 29.1893C200.719 32.6235 199.48 35.8001 197.135 38.5045C194.437 41.6381 190.942 43.398 186.827 43.9561C182.845 44.5141 179.926 42.7542 177.581 39.8354C176.873 38.9767 176.253 37.9893 175.678 37.0449C174.395 35.0273 173.157 35.0273 171.785 36.9591C170.591 38.719 169.484 40.5221 167.848 41.9817C165.857 43.7845 163.644 45.2441 160.857 45.6302C158.114 46.0166 155.725 45.1583 153.69 43.4409C151.92 41.9817 150.726 40.0928 149.797 38.0751C148.425 35.0273 147.187 31.9797 146.832 28.6313C146.523 25.6694 146.523 22.7074 146.523 19.7455C146.523 16.4401 146.523 13.0918 146.567 9.78642C146.567 9.01372 146.656 8.24106 146.788 7.46837C147.408 4.20592 149.575 3.30446 152.54 3.77666C154.796 4.16299 156.345 5.88008 156.698 8.28396C156.964 9.95812 157.008 11.6752 157.008 13.3923C157.008 15.281 157.008 17.1269 156.92 19.0157C156.743 22.7074 157.495 26.3132 158.468 29.9191C158.734 30.8206 158.955 31.7649 159.265 32.6664C159.353 33.01 159.53 33.3532 159.707 33.6538C160.548 35.1134 162.184 35.2421 163.246 33.9112C164.308 32.5806 164.972 31.0352 165.724 29.5328C166.83 27.3006 167.936 25.0684 169.44 23.0937C169.75 22.7074 170.06 22.364 170.414 22.0206C172.758 19.5737 175.9 19.6596 178.2 22.1923C179.483 23.6089 180.457 25.2401 181.341 26.9142C182.314 28.7601 183.288 30.6489 184.261 32.4948C184.527 32.9671 184.836 33.439 185.19 33.8683C186.164 35.0273 187.756 35.1134 188.862 34.126C189.437 33.6538 189.791 33.01 190.057 32.3658C191.428 29.3611 192.136 26.1844 192.446 22.922C192.667 20.3464 192.579 17.8137 192.623 15.2381C192.623 14.165 192.667 13.0918 192.888 12.0615C193.375 9.74348 194.791 8.54152 197.003 8.58446C199.17 8.62739 201.383 10.3874 201.56 12.4049C201.781 14.6801 201.781 16.9981 201.869 19.3162C201.869 19.7025 201.825 20.0889 202.002 20.4323C201.958 21.9347 201.958 23.3513 201.958 24.7679Z" fill="#662681"/>
        <path d="M100.378 17.8566C100.378 16.44 100.378 15.0234 100.378 13.5639C100.378 13.1775 100.422 12.7483 100.511 12.362C100.998 10.1727 102.192 9.09951 104.404 8.97071C106.616 8.79901 108.165 9.78634 108.961 11.8039C109.625 13.478 109.757 15.281 109.934 17.041C110.156 19.1014 110.288 21.1619 110.244 23.2224C110.156 26.7424 109.713 30.1766 108.165 33.3961C106.174 37.56 103.121 40.8653 99.0509 43.1406C95.4674 45.1579 91.751 44.6857 88.3444 42.0242C86.8402 40.8653 85.5572 39.4918 84.4068 38.0322C83.9204 37.4313 83.3452 36.8304 82.7258 36.3581C81.7965 35.6711 81.0002 35.714 80.1597 36.4868C79.4077 37.1307 78.9209 37.9464 78.4342 38.7619C76.9742 41.0372 75.249 43.0974 72.8598 44.5141C68.48 47.0039 62.5516 45.7592 59.6314 41.7239C57.6851 39.0196 56.7116 35.8859 55.7826 32.7522C54.3669 28.0732 54.1455 23.2224 54.3669 18.3717C54.4996 15.5385 54.4111 12.6624 54.4111 9.82927C54.4111 9.05658 54.4996 8.28388 54.6322 7.51122C55.2517 4.54927 57.331 3.39024 60.295 3.73364C62.64 3.99121 63.9231 5.19317 64.454 7.46828C64.9847 9.65754 64.9405 11.8468 64.852 14.0361C64.5425 19.7883 64.6751 25.4975 66.7545 31.0351C67.1086 32.0226 67.3297 33.0525 67.8606 33.9541C68.6127 35.1992 69.5859 35.3279 70.6478 34.2976C71.4883 33.439 72.0193 32.4087 72.5945 31.3785C73.966 28.8888 75.0718 26.3132 76.6647 23.9522C77.3283 22.9649 78.0804 22.0205 79.0978 21.2907C81.0445 19.9171 83.2568 20.0029 85.1147 21.4624C86.796 22.8361 87.858 24.5961 88.9196 26.399C90.2026 28.5454 91.4414 30.7346 92.6803 32.9238C92.9898 33.4819 93.3881 33.997 93.9191 34.4263C94.6269 34.9843 95.4232 35.0272 96.1311 34.4692C96.7947 33.997 97.2369 33.3103 97.6352 32.6235C99.2723 29.919 100.024 26.9571 100.29 23.8234C100.422 21.8917 100.378 19.8741 100.378 17.8566Z" fill="#662681"/>
        <path d="M21.6724 18.4146C27.645 18.6293 32.8213 20.1746 37.3339 23.6517C44.7223 29.361 45.5186 40.1785 38.971 46.7894C34.9893 50.7814 30.0783 52.842 24.3712 53.3142C20.0354 53.6577 15.8767 53.0136 11.9392 51.2537C7.51505 49.2789 4.01994 46.2311 2.16178 41.7668C-0.359996 35.7143 0.79029 30.2195 5.30296 25.4976C9.77136 20.8185 15.4785 18.7151 21.6724 18.4146ZM22.1591 45.244C22.4687 45.244 22.7342 45.244 23.0439 45.244C23.3536 45.244 23.619 45.1579 23.9287 45.1579C27.3796 44.7289 30.388 43.4838 32.7771 40.9943C34.9008 38.8047 35.6087 36.2723 34.4141 33.396C33.6619 31.6361 32.3789 30.3483 30.742 29.361C27.8662 27.601 24.6808 26.9142 21.2742 27.0859C18.2658 27.2576 15.567 28.0302 13.1337 29.8332C8.88653 32.9667 8.48835 38.118 12.2489 41.5094C14.9919 44.0418 18.3543 45.1579 22.1591 45.244Z" fill="#EA670C"/>
        <path d="M111.837 30.9064C111.616 22.3211 118.783 15.4099 125.95 14.0362C128.428 13.564 130.772 13.9933 133.029 15.0235C137.763 17.2128 141.169 20.6469 143.116 25.3689C145.019 30.005 143.868 34.2547 140.683 37.9893C137.099 42.1533 132.41 44.2138 126.879 44.6002C123.915 44.8147 120.995 44.5573 118.252 43.3551C115.376 42.1104 113.695 39.8353 112.766 37.002C112.058 35.0276 111.793 33.0099 111.837 30.9064ZM124.048 35.7572C127.764 35.7572 131.171 34.8985 134.091 32.5806C135.329 31.5933 136.347 30.3484 136.081 28.6742C135.728 26.6138 135.462 24.5533 134.887 22.5357C133.958 19.1874 130.374 17.3845 126.924 19.6596C124.402 21.3338 122.367 23.4372 120.685 25.884C119.668 27.3435 118.739 28.8889 118.562 30.6918C118.208 34.0831 119.801 35.5856 122.853 35.7572C123.251 35.7572 123.65 35.7572 124.048 35.7572Z" fill="#662681"/>
        <path d="M34.3256 12.8342C30.8304 12.8342 28.0432 10.0868 28.0874 6.60977C28.1317 3.30439 31.0074 0.600006 34.414 0.600006C37.8206 0.600006 40.7847 3.47612 40.7405 6.73853C40.6962 10.1727 37.8206 12.8771 34.3256 12.8342Z" fill="#EA670C"/>
        <path d="M3.79883 6.73849C3.79883 3.34728 6.58606 0.642899 10.0369 0.642899C13.532 0.642899 16.4077 3.43315 16.3635 6.82436C16.3635 10.2156 13.532 12.92 10.0369 12.92C6.49759 12.8341 3.79883 10.1726 3.79883 6.73849Z" fill="#EA670C"/>
    </g>
</svg>
