<svg width="24" height="24" viewBox="0 0 24 24" fill="none" xmlns="http://www.w3.org/2000/svg">
    <path d="M10.8389 8.17224C11.6386 7.92963 12.4943 7.94363 13.2858 8.21228C14.0772 8.48093 14.7646 8.99073 15.2514 9.67009C15.7165 10.3191 15.9762 11.0917 15.9984 11.8882L15.2736 11.566C14.8449 11.3755 14.4135 11.827 14.6233 12.2465L16.5528 16.1056C16.7371 16.4741 17.263 16.4741 17.4472 16.1056L19.3767 12.2465C19.5865 11.827 19.1551 11.3755 18.7265 11.566L17.999 11.8893C17.9766 10.6745 17.5858 9.49416 16.8771 8.50513C16.1469 7.4861 15.1158 6.7214 13.9286 6.31842C12.7415 5.91544 11.458 5.89444 10.2583 6.25836C9.05861 6.62228 8.00306 7.35284 7.23988 8.34743C6.4767 9.34203 6.04423 10.5507 6.00321 11.8037C5.9622 13.0567 6.31469 14.291 7.01118 15.3334C7.70768 16.3758 8.71319 17.1738 9.8865 17.6154C11.0598 18.057 12.342 18.12 13.5529 17.7956C14.0864 17.6526 14.403 17.1043 14.26 16.5708C14.1171 16.0373 13.5687 15.7208 13.0353 15.8637C12.228 16.08 11.3732 16.038 10.591 15.7436C9.8088 15.4492 9.13845 14.9172 8.67412 14.2223C8.20979 13.5274 7.9748 12.7044 8.00214 11.8691C8.02949 11.0338 8.3178 10.228 8.82659 9.56495C9.33537 8.90189 10.0391 8.41485 10.8389 8.17224Z" fill="#C5C5C5"/>
</svg>
